<svg width="40" height="40" viewBox="0 0 40 40" fill="none" xmlns="http://www.w3.org/2000/svg">
<path d="M7.09825 27.656C5.2346 24.5143 4.58193 20.8004 5.2628 17.2115C5.94368 13.6227 7.91126 10.4059 10.7961 8.1651C13.6809 5.92432 17.2845 4.81372 20.9302 5.04186C24.5759 5.27 28.0129 6.82118 30.5959 9.40412C33.1788 11.9871 34.73 15.4241 34.9582 19.0698C35.1863 22.7155 34.0758 26.3191 31.835 29.2039C29.5942 32.0888 26.3774 34.0563 22.7886 34.7372C19.1998 35.4181 15.4858 34.7655 12.3441 32.9018L12.3442 32.9017L7.16347 34.3819C6.94912 34.4431 6.7223 34.4459 6.50651 34.39C6.29072 34.3341 6.0938 34.2215 5.93617 34.0639C5.77854 33.9062 5.66594 33.7093 5.61002 33.4935C5.5541 33.2777 5.55691 33.0509 5.61815 32.8366L7.09836 27.6559L7.09825 27.656Z" stroke="black" stroke-width="2" stroke-linecap="round" stroke-linejoin="round"/>
<path d="M20 21.875C21.0355 21.875 21.875 21.0355 21.875 20C21.875 18.9645 21.0355 18.125 20 18.125C18.9645 18.125 18.125 18.9645 18.125 20C18.125 21.0355 18.9645 21.875 20 21.875Z" fill="black"/>
<path d="M12.5 21.875C13.5355 21.875 14.375 21.0355 14.375 20C14.375 18.9645 13.5355 18.125 12.5 18.125C11.4645 18.125 10.625 18.9645 10.625 20C10.625 21.0355 11.4645 21.875 12.5 21.875Z" fill="black"/>
<path d="M27.5 21.875C28.5355 21.875 29.375 21.0355 29.375 20C29.375 18.9645 28.5355 18.125 27.5 18.125C26.4645 18.125 25.625 18.9645 25.625 20C25.625 21.0355 26.4645 21.875 27.5 21.875Z" fill="black"/>
</svg>
