<svg width="40" height="40" viewBox="0 0 40 40" fill="none" xmlns="http://www.w3.org/2000/svg">
<path d="M8.78178 16.25C8.77971 14.7675 9.07108 13.2993 9.63909 11.93C10.2071 10.5606 11.0405 9.31721 12.0913 8.27146C13.1421 7.2257 14.3895 6.39827 15.7616 5.83685C17.1337 5.27543 18.6033 4.99113 20.0857 5.00034C26.2716 5.04633 31.2196 10.188 31.2196 16.3913V17.5C31.2196 23.0962 32.3904 26.3436 33.4216 28.1185C33.5327 28.3081 33.5918 28.5237 33.593 28.7435C33.5941 28.9633 33.5373 29.1795 33.4283 29.3703C33.3192 29.5611 33.1618 29.7198 32.9718 29.8304C32.7819 29.941 32.5661 29.9995 32.3463 30H7.65374C7.43393 29.9995 7.21816 29.9409 7.02819 29.8304C6.83822 29.7198 6.68077 29.561 6.57173 29.3702C6.46269 29.1793 6.40591 28.9631 6.40712 28.7433C6.40834 28.5235 6.4675 28.3079 6.57864 28.1182C7.61041 26.3433 8.78177 23.0959 8.78177 17.5L8.78178 16.25Z" stroke="black" stroke-width="2" stroke-linecap="round" stroke-linejoin="round"/>
<path d="M15 30V31.25C15 32.5761 15.5268 33.8479 16.4645 34.7855C17.4021 35.7232 18.6739 36.25 20 36.25C21.3261 36.25 22.5979 35.7232 23.5355 34.7855C24.4732 33.8479 25 32.5761 25 31.25V30" stroke="black" stroke-width="2" stroke-linecap="round" stroke-linejoin="round"/>
</svg>
