<svg width="112" height="112" viewBox="0 0 112 112" fill="none" xmlns="http://www.w3.org/2000/svg">
<path fill-rule="evenodd" clip-rule="evenodd" d="M61.6 89.6C64.5704 89.6 67.4192 90.78 69.5196 92.8804C71.62 94.9808 72.8 97.8296 72.8 100.8C72.8 103.77 71.62 106.619 69.5196 108.72C67.4192 110.82 64.5704 112 61.6 112C58.6296 112 55.7808 110.82 53.6804 108.72C51.58 106.619 50.4 103.77 50.4 100.8C50.4 97.8296 51.58 94.9808 53.6804 92.8804C55.7808 90.78 58.6296 89.6 61.6 89.6ZM26.5496 72.8C30.2626 72.8 33.8236 74.275 36.4491 76.9005C39.0746 79.526 40.5496 83.087 40.5496 86.8C40.5496 90.513 39.0746 94.074 36.4491 96.6995C33.8236 99.325 30.2626 100.8 26.5496 100.8C22.8366 100.8 19.2756 99.325 16.6501 96.6995C14.0246 94.074 12.5496 90.513 12.5496 86.8C12.5496 83.087 14.0246 79.526 16.6501 76.9005C19.2756 74.275 22.8366 72.8 26.5496 72.8ZM91.3864 75.6C94.3568 75.6 97.2056 76.78 99.306 78.8804C101.406 80.9808 102.586 83.8296 102.586 86.8C102.586 89.7704 101.406 92.6192 99.306 94.7196C97.2056 96.82 94.3568 98 91.3864 98C88.416 98 85.5672 96.82 83.4668 94.7196C81.3664 92.6192 80.1864 89.7704 80.1864 86.8C80.1864 83.8296 81.3664 80.9808 83.4668 78.8804C85.5672 76.78 88.416 75.6 91.3864 75.6ZM103.6 52.1864C105.828 52.1864 107.964 53.0714 109.54 54.6467C111.115 56.222 112 58.3586 112 60.5864C112 62.8142 111.115 64.9508 109.54 66.5261C107.964 68.1014 105.828 68.9864 103.6 68.9864C101.372 68.9864 99.2356 68.1014 97.6603 66.5261C96.085 64.9508 95.2 62.8142 95.2 60.5864C95.2 58.3586 96.085 56.222 97.6603 54.6467C99.2356 53.0714 101.372 52.1864 103.6 52.1864ZM14 33.6C17.713 33.6 21.274 35.075 23.8995 37.7005C26.525 40.326 28 43.887 28 47.6C28 51.313 26.525 54.874 23.8995 57.4995C21.274 60.125 17.713 61.6 14 61.6C10.287 61.6 6.72601 60.125 4.1005 57.4995C1.475 54.874 0 51.313 0 47.6C0 43.887 1.475 40.326 4.1005 37.7005C6.72601 35.075 10.287 33.6 14 33.6ZM99.6016 29.1592C101.087 29.1592 102.511 29.7492 103.561 30.7994C104.612 31.8496 105.202 33.274 105.202 34.7592C105.202 36.2444 104.612 37.6688 103.561 38.719C102.511 39.7692 101.087 40.3592 99.6016 40.3592C98.1164 40.3592 96.692 39.7692 95.6418 38.719C94.5916 37.6688 94.0016 36.2444 94.0016 34.7592C94.0016 33.274 94.5916 31.8496 95.6418 30.7994C96.692 29.7492 98.1164 29.1592 99.6016 29.1592ZM44.8 0C49.2556 0 53.5288 1.76999 56.6794 4.92061C59.83 8.07122 61.6 12.3444 61.6 16.8C61.6 21.2556 59.83 25.5288 56.6794 28.6794C53.5288 31.83 49.2556 33.6 44.8 33.6C40.3444 33.6 36.0712 31.83 32.9206 28.6794C29.77 25.5288 28 21.2556 28 16.8C28 12.3444 29.77 8.07122 32.9206 4.92061C36.0712 1.76999 40.3444 0 44.8 0ZM86.8 16.8C87.5426 16.8 88.2548 17.095 88.7799 17.6201C89.305 18.1452 89.6 18.8574 89.6 19.6C89.6 20.3426 89.305 21.0548 88.7799 21.5799C88.2548 22.105 87.5426 22.4 86.8 22.4C86.0574 22.4 85.3452 22.105 84.8201 21.5799C84.295 21.0548 84 20.3426 84 19.6C84 18.8574 84.295 18.1452 84.8201 17.6201C85.3452 17.095 86.0574 16.8 86.8 16.8Z" fill="url(#paint0_linear)"/>
<defs>
<linearGradient id="paint0_linear" x1="56" y1="14.5264" x2="82.3832" y2="104.241" gradientUnits="userSpaceOnUse">
<stop stop-color="#FC2A67"/>
<stop offset="1" stop-color="#FFA242"/>
</linearGradient>
</defs>
</svg>
